# xmcd
#
# Track frame offsets: 
#        150
#        11848
#        23980
#        35579
#        40659
#        51342
#        62709
#        77740
#        89335
#        102156
#        129185
#        152353
#        173785
#        192469
#        207278
#        221248
#        240481
#        253007
#        265161
#        278256
#
# Disc length: 3885 seconds
#
# Revision: 0
# Processed by: cddbd v1.5.2PL0 Copyright (c) Steve Scherf et al.
# Submitted via: ExactAudioCopy v0.99pb5
#
DISCID=0e0f2b14
DTITLE=Sonny Terry and Brownie McGhee - Cripple Creek
DYEAR=2009
DGENRE=Blues
TTITLE0=The Midnight Special
TTITLE1=Rising Sun
TTITLE2=In His Care
TTITLE3=Preachin'
TTITLE4=I Shall Not Be Moved
TTITLE5=Pick A Bale Of Cotton
TTITLE6=A Man Is Nothing But A Fool
TTITLE7=Mamma Blues #2
TTITLE8=Raising A Ruckus Tonight
TTITLE9=Cindy
TTITLE10=Bottle Up And Go
TTITLE11=Cripple Creek
TTITLE12=John Henry
TTITLE13=Old Joe Clark
TTITLE14=Skip To My Lou
TTITLE15=Green Corn
TTITLE16=Working Man's Blues
TTITLE17=Big-Legged Woman
TTITLE18=Bad Blood
TTITLE19=Back Home Blues
EXTD=
EXTT0=
EXTT1=
EXTT2=
EXTT3=
EXTT4=
EXTT5=
EXTT6=
EXTT7=
EXTT8=
EXTT9=
EXTT10=
EXTT11=
EXTT12=
EXTT13=
EXTT14=
EXTT15=
EXTT16=
EXTT17=
EXTT18=
EXTT19=
PLAYORDER=
